<?xml version="1.0" encoding="UTF-8"?>
<svg id="Layer_1" data-name="Layer 1" xmlns="http://www.w3.org/2000/svg" viewBox="0 0 215.4 229.8">
  <defs>
    <style>
      .cls-1 {
        fill: #fefefe;
      }

      .cls-1, .cls-2, .cls-3, .cls-4, .cls-5, .cls-6, .cls-7, .cls-8, .cls-9, .cls-10, .cls-11, .cls-12, .cls-13, .cls-14, .cls-15, .cls-16, .cls-17, .cls-18, .cls-19, .cls-20, .cls-21, .cls-22, .cls-23, .cls-24 {
      }

      .cls-2 {
        fill: #725a2c;
      }

      .cls-3 {
        fill: #725929;
      }

      .cls-4 {
        fill: #413054;
      }

      .cls-5 {
        fill: #473759;
      }

      .cls-6 {
        fill: #745d30;
      }

      .cls-7 {
        fill: #693d3e;
      }

      .cls-8 {
        fill: #725b2e;
      }

      .cls-9 {
        fill: #3c2c4f;
      }

      .cls-10 {
        fill: #715b36;
      }

      .cls-11 {
        fill: #ad72e8;
      }

      .cls-12 {
        fill: #47345c;
      }

      .cls-13 {
        fill: #6a4040;
      }

      .cls-14 {
        fill: #6e4444;
      }

      .cls-15 {
        fill: #6a4242;
      }

      .cls-16 {
        fill: #39294b;
      }

      .cls-17 {
        fill: #413351;
      }

      .cls-18 {
        fill: #6f4545;
      }

      .cls-19 {
        fill: #fdb2b2;
      }

      .cls-20 {
        fill: #fbd386;
      }

      .cls-21 {
        fill: #37254b;
      }

      .cls-22 {
        fill: #775f33;
      }

      .cls-23 {
        fill: #413451;
      }

      .cls-24 {
        fill: #6c4646;
      }
    </style>
  </defs>
  <path class="cls-1" d="m.6,229.2h214.8c-.9.2-1.8.57-2.7.57-42.84.03-85.68.02-128.52.02-27.06,0-54.12,0-81.19-.03-.8,0-1.6-.37-2.4-.57Z"/>
  <path class="cls-20" d="m32.34,36.47c-.29-4.5,2.66-7.19,5.82-9.4,6.2-4.35,13.48-6.05,20.7-8.07,9.66-2.7,19.51-3.08,29.32-3.29,15.88-.34,31.54,1.98,46.3,7.99,8.54,3.48,16.72,7.81,24.18,13.6,7.77,6.03,14.68,12.73,20.17,20.74,5.29,7.71,9.95,15.85,12.03,25.19,1.27,5.7,3.16,11.26,4.41,16.97.69,3.16.88,6.48.86,9.72-.04,7.25.26,14.57-.68,21.72-1.63,12.38-4.02,24.7-11.86,35.01-1.63,2.14-4,3.73-6.03,5.57-1.59.07-3.19.14-4.78.2-4.11-2.05-6.34-5.79-7.69-9.79-4.25-12.53-8.01-25.22-12.23-37.76-2.32-6.89-5.18-13.61-7.8-20.4,0-.18-.1-.29-.28-.33-.43-.9-.86-1.8-1.29-2.69-.21-.65-.3-1.37-.63-1.96-5.89-10.47-11.81-20.92-18.03-31.91,3.36-3.53,7.37-7.73,11.31-11.87,11.28,7.25,19.58,16.76,25.63,28.27.85,1.62,1.32,3.45,1.96,5.18-4.27,2.7-4.99,3.91-3.95,6.96.41,1.21.84,2.53,1.67,3.44,1.18,1.3,2.91,3.32,4.07,3.11,1.71-.3,3.74-1.98,4.53-3.61,2.09-4.31,2.28-8.93.44-13.5-.84-7.19-4.08-13.41-8.15-19.2-7.89-11.22-18.21-19.41-31.17-24.18-6.65-2.45-13.5-3.4-20.55-2.63-.92.1-1.79.69-2.68,1.06-4.18,1.39-5.29,4.32-3,7.95.16.9.33,1.8.42,2.31-8.34-2.08-16.54-4.35-24.85-6.13-9.83-2.11-19.83-1.89-29.82-1.33-5.3.29-10.79,1.52-15.32-2.68-1.02-1.41-2.03-2.83-3.05-4.24Z"/>
  <path class="cls-8" d="m145.06,104.46c2.62,6.79,5.48,13.51,7.8,20.4,4.22,12.54,7.98,25.23,12.23,37.76,1.36,4,3.58,7.74,7.69,9.79-.43.93-.66,2.04-1.32,2.75-1.21,1.3-2.67,2.36-4.02,3.52-8.54,7.28-17.1,14.54-25.6,21.87-.67.57-.95,1.59-1.42,2.39-1.66-.37-3.97-.19-4.83-1.22-1.96-2.34-3.7-5.11-4.66-8-2.16-6.52-3.78-13.21-5.66-19.82-.21-.74-.72-1.39-1.09-2.08.99-1.64,1.98-3.27,2.97-4.91,0,0-.01.05-.01.05l.66-.49c2.97-3.74,6.72-7.11,8.72-11.31,2.9-6.08,5.21-12.62,6.51-19.22,1.19-6.03.96-12.39.86-18.6-.06-3.81-1.06-7.61-1.65-11.41.94-.49,1.88-.98,2.82-1.46Z"/>
  <path class="cls-7" d="m32.35,137.68c-2.33.16-4.66.43-6.99.42-.82,0-1.63-.69-2.45-1.06.47-.8,1.16-1.55,1.37-2.41,1.37-5.69,2.62-11.41,3.94-17.11,1.68-7.24,3.33-14.5,5.14-21.71.28-1.11,1.32-2.03,2-3.04,1.28,1.56,2.81,2.01,4.92,1.91,11.91-.55,23.82-.81,35.13,4,.5-.27,1.28-.42,1.44-.82,1.65-3.99,3.19-8.01,4.77-12.03,5.61-2.15,11.28-1.95,16.99-.41,10.37,2.81,22.61,14.28,23.01,27.68-1.57,1.33-3.08,2.76-4.75,3.95-.6.43-1.59.31-2.41.43-3.74-8.45-8.96-15.71-17.08-20.84-2.81,2.97-5.71,5.92-8.46,8.99-1.73,1.94-3.24,4.08-4.85,6.13-1.04,2.09-2.08,4.18-3.12,6.27-.54-.24-1.14-.39-1.62-.72-9.03-6.1-18.62-6.2-28.4-2.36-9.08,3.58-15.66,9.58-17.45,19.69-.38,1.01-.75,2.02-1.13,3.03Z"/>
  <path class="cls-13" d="m80.94,118.03c1.04-2.09,2.08-4.18,3.12-6.27,1.17,2.71,2.44,5.38,3.5,8.13,5.12,13.37,10.27,26.75,17.74,39.04,3.23,5.32,7.14,10.1,14.1,10.69-.23.63-.31,1.41-.73,1.88-7.44,8.35-14.96,16.64-22.37,25.02-1.13,1.28-1.82,2.95-2.71,4.44-6.98,1.18-10.26-3.73-12.99-8.55-3.31-5.84-5.81-12.15-8.66-18.25.64-1.34,1.23-2.7,1.92-4.01,1.88-3.55,3.81-7.09,5.71-10.63l.12.21c.22-.22.44-.45.66-.67l-.1.06c.25-.37.5-.75.76-1.12,1.22-1.78,2.55-3.5,3.64-5.36,4.67-7.89,6.35-16.29,2.79-24.94-1.45-3.52-4.29-6.48-6.5-9.69Z"/>
  <path class="cls-16" d="m50.44,197.54c-4.4,2.27-9.13,1.18-13.65.98-4.94-.22-9.82-1.48-15.23-2.38,1.15-2.93,2.46-6.23,3.64-9.23-1.17-2.13-4.7,1.32-4.7-2.58.37-.41.88-.77,1.08-1.25,2.58-6.49,5.2-12.97,7.63-19.51,1.67-4.52,3.06-9.15,4.57-13.72,2.34.35,4.68.69,7.02,1.04-.59,2.39-1.17,4.78-1.76,7.18-1.16,1.62-2.32,3.23-3.67,5.1,3.83.18,7.34-.08,10.68.58,8,1.56,15.95,3.18,24.11,1.23-.35,1-.5,2.14-1.07,2.99-5.35,8.01-10.82,15.94-16.13,23.98-1.11,1.69-1.69,3.73-2.52,5.61Z"/>
  <path class="cls-2" d="m32.34,36.47c1.02,1.41,2.03,2.83,3.05,4.24-3.62,13.16-5.89,26.5-5.56,41.1.88-1.5,1.41-2.27,1.81-3.11,1.15-2.42,2.2-4.89,3.39-7.29.88-1.77,7.55-3.76,9.23-2.78.36.21.5.81.74,1.22-.98.65-1.98,1.27-2.94,1.94-5.27,3.65-9.41,8.04-9.62,14.94-.83,2.23-1.65,4.45-2.48,6.68-3.59.77-5.91-1.63-8.25-3.55-2.37-1.94-1.72-4.85-1.19-7.37.7-3.33,1.95-6.54,2.75-9.85,1.72-7.1,3.22-14.26,4.97-21.35,1.23-4.98,2.72-9.89,4.1-14.83Z"/>
  <path class="cls-15" d="m29.96,93.42c.83-2.23,1.65-4.45,2.48-6.68.97,2.01,1.95,4.01,2.92,6.02-.69,1.01-1.73,1.93-2,3.04-1.81,7.21-3.46,14.46-5.14,21.71-1.32,5.7-2.57,11.42-3.94,17.11-.21.86-.9,1.61-1.37,2.41-3.61-3.74-3.49-7.86-1.74-12.46,1.62-4.27,2.73-8.73,3.96-13.13,1.67-5.99,3.23-12.01,4.84-18.02Z"/>
  <path class="cls-23" d="m33.77,149.84c-1.51,4.58-2.89,9.21-4.57,13.72-2.42,6.55-5.05,13.02-7.63,19.51-.19.48-.71.84-1.08,1.25-.04-3.9-.6-7.88.02-11.67.71-4.36,2.35-8.6,3.79-12.82,2.2-6.42,4.58-12.79,6.89-19.17.36-1,.76-1.99,1.15-2.99.38-1.01.75-2.02,1.13-3.03.1,5.06.2,10.12.29,15.19Z"/>
  <path class="cls-17" d="m50.44,197.54c.83-1.88,1.41-3.92,2.52-5.61,5.31-8.04,10.78-15.97,16.13-23.98.57-.86.72-1.99,1.07-2.99,3.14-1.81,6.28-3.61,9.42-5.42-1.91,3.54-3.83,7.07-5.71,10.63-.69,1.31-1.28,2.67-1.92,4.01-1.46,1.96-2.98,3.88-4.38,5.88-3.41,4.87-5.83,10.52-10.73,14.2-1.89,1.42-4.25,2.2-6.39,3.28Z"/>
  <path class="cls-24" d="m93.6,200.97c.89-1.49,1.58-3.16,2.71-4.44,7.41-8.38,14.92-16.67,22.37-25.02.42-.47.49-1.25.73-1.88,2.58-.91,5.17-1.82,7.75-2.73-.99,1.64-1.98,3.27-2.97,4.91-1.69,1.58-3.5,3.04-5.04,4.75-6.12,6.79-12,13.81-18.32,20.41-1.82,1.9-4.79,2.7-7.23,4.01Z"/>
  <path class="cls-10" d="m140.42,202.94c.46-.81.75-1.82,1.42-2.39,8.5-7.33,17.06-14.59,25.6-21.87,1.36-1.16,2.82-2.22,4.02-3.52.66-.71.89-1.82,1.32-2.75,1.59-.07,3.19-.14,4.78-.2-1.99,1.93-3.89,3.96-5.98,5.78-8.55,7.42-17.12,14.82-25.79,22.1-1.52,1.28-3.57,1.92-5.38,2.85Z"/>
  <path class="cls-3" d="m45,69.86c-.24-.42-.38-1.01-.74-1.22-1.68-.99-8.35,1-9.23,2.78-1.19,2.4-2.24,4.87-3.39,7.29-.4.84-.93,1.61-1.81,3.11-.32-14.61,1.95-27.94,5.56-41.1,4.52,4.2,10.01,2.98,15.32,2.68,9.99-.55,19.99-.78,29.82,1.33,8.31,1.78,16.51,4.05,24.85,6.13-.09-.51-.25-1.41-.42-2.31,1-2.65,2-5.3,3-7.95.89-.37,1.76-.96,2.68-1.06,7.05-.77,13.89.19,20.55,2.63,12.96,4.77,23.28,12.96,31.17,24.18,4.07,5.79,7.31,12.01,8.15,19.2-.84.62-1.75,1.17-2.52,1.87-1.22,1.1-2.19,2.71-4.25,1.72-.64-1.73-1.11-3.56-1.96-5.18-6.05-11.5-14.34-21.02-25.63-28.27-3.94,4.14-7.95,8.34-11.31,11.87,6.21,10.99,12.13,21.44,18.03,31.91.33.59.43,1.3.63,1.96.43.9.86,1.8,1.29,2.69.18.04.27.15.28.33-.94.49-1.88.97-2.82,1.46-2.07-4.9-3.53-10.18-6.33-14.64-11.63-18.53-29.17-27.41-50.58-28.97-14.02-1.02-27.57,1.4-40.34,7.54Z"/>
  <path class="cls-6" d="m163.74,89.14c2.06.99,3.02-.62,4.25-1.72.77-.7,1.68-1.25,2.52-1.87,1.84,4.56,1.65,9.19-.44,13.5-.79,1.63-2.83,3.31-4.53,3.61-1.16.2-2.89-1.82-4.07-3.11-.82-.91-1.25-2.23-1.67-3.44-1.05-3.05-.32-4.26,3.95-6.96Z"/>
  <path class="cls-22" d="m107.96,40.6c-1,2.65-2,5.3-3,7.95-2.29-3.63-1.18-6.56,3-7.95Z"/>
  <path class="cls-8" d="m144.78,104.13c-.43-.9-.86-1.8-1.29-2.69.43.9.86,1.8,1.29,2.69Z"/>
  <path class="cls-19" d="m45,69.86c12.77-6.13,26.32-8.56,40.34-7.54,21.4,1.56,38.95,10.43,50.58,28.97,2.79,4.45,4.25,9.73,6.33,14.64.58,3.8,1.58,7.6,1.65,11.41.1,6.21.33,12.57-.86,18.6-1.3,6.59-3.61,13.14-6.51,19.22-2,4.2-5.75,7.57-8.72,11.31-.22.16-.44.33-.66.49,0,0,.01-.05.01-.05-2.58.91-5.17,1.82-7.75,2.73-6.96-.59-10.87-5.37-14.1-10.69-7.47-12.29-12.61-25.67-17.74-39.04-1.05-2.75-2.32-5.42-3.5-8.13,1.61-2.05,3.12-4.19,4.85-6.13,2.75-3.08,5.65-6.02,8.46-8.99,8.12,5.12,13.34,12.38,17.08,20.84-1.11.63-2.28,1.19-3.33,1.9-2.76,1.87-3.16,3.95-1.31,6.45,1.52,2.06,3.53,2.07,6.16.17,4.43-3.21,5.87-7.69,5.65-12.91-.4-13.4-12.65-24.87-23.01-27.68-5.71-1.55-11.38-1.75-16.99.41-1.21.96-2.46,1.88-3.62,2.9-3.08,2.73-2.17,6.52-2.59,9.95-11.31-4.81-23.22-4.54-35.13-4-2.11.1-3.64-.35-4.92-1.91-.97-2.01-1.95-4.01-2.92-6.02.21-6.9,4.35-11.29,9.62-14.94.96-.67,1.96-1.3,2.94-1.94Z"/>
  <path class="cls-24" d="m127.14,166.95c.22-.16.44-.33.66-.49-.22.16-.44.33-.66.49Z"/>
  <path class="cls-11" d="m79.58,159.53c-3.14,1.81-6.28,3.61-9.42,5.42-8.16,1.95-16.1.33-24.11-1.23-3.34-.65-6.85-.4-10.68-.58,1.34-1.86,2.5-3.48,3.67-5.1,2.64-2.79,5.27-5.59,7.91-8.38,1.98-2.14,3.97-4.28,5.95-6.42,2.48-.6,6.88,3.49,6.33,5.94-.08.38-.68.64-1.04.96-1.92,1.19-3.83,2.39-5.75,3.58.25.42.5.84.75,1.26,1.67-.8,3.35-1.61,5.02-2.41,1.83-1.12,3.66-2.25,5.48-3.37,2.94-2.11,4.55-4.94,4.61-8.59-.17-3.78-1.81-6.27-5.57-7.7-2.88-1.09-5.16-.1-7.63.82-2,1.63-4,3.25-6,4.88-1.96,3.21-3.87,6.45-5.9,9.62-.63.99-1.59,1.76-2.4,2.63-2.34-.35-4.68-.69-7.02-1.04-.1-5.06-.2-10.13-.29-15.19,1.79-10.11,8.36-16.11,17.45-19.69,9.78-3.85,19.37-3.75,28.4,2.36.48.33,1.08.48,1.62.72,2.21,3.21,5.05,6.16,6.5,9.69,3.56,8.66,1.88,17.05-2.79,24.94-1.1,1.85-2.42,3.57-3.64,5.36-.25.37-.5.75-.76,1.12,0,0,.1-.06.1-.06-.22.22-.44.45-.66.67l-.12-.21Z"/>
  <path class="cls-18" d="m121.62,113.09c.22,5.22-1.22,9.7-5.65,12.91-2.63,1.91-4.64,1.89-6.16-.17-1.85-2.5-1.45-4.59,1.31-6.45,1.06-.71,2.22-1.27,3.33-1.9.82-.13,1.81,0,2.41-.43,1.67-1.2,3.18-2.62,4.75-3.95Z"/>
  <path class="cls-14" d="m75.41,98.66c.42-3.43-.5-7.23,2.59-9.95,1.16-1.02,2.41-1.94,3.62-2.9-1.57,4.02-3.12,8.04-4.77,12.03-.17.4-.95.55-1.44.82Z"/>
  <path class="cls-17" d="m80.25,159.14c.25-.37.5-.75.76-1.12-.25.37-.5.75-.76,1.12Z"/>
  <path class="cls-17" d="m79.69,159.74c.22-.22.44-.45.66-.67-.22.22-.44.45-.66.67Z"/>
  <path class="cls-5" d="m46.94,149.67c-2.64,2.79-5.27,5.59-7.91,8.38.59-2.39,1.17-4.78,1.76-7.18.81-.87,1.77-1.65,2.4-2.63,2.03-3.17,3.94-6.41,5.9-9.62-.92,2.77-1.82,5.54-2.76,8.3-.36,1.07-1.38,2.22.6,2.75Z"/>
  <path class="cls-21" d="m58.18,150.16c.36-.32.95-.58,1.04-.96.55-2.46-3.85-6.55-6.33-5.94.38-1.68.74-3.37,1.13-5.05.35-1.49.72-2.98,1.07-4.47,2.47-.92,4.74-1.91,7.63-.82,3.76,1.43,5.4,3.92,5.57,7.7-2.84,2.17-3.96,5.25-4.61,8.59-1.83,1.12-3.66,2.25-5.48,3.37,0-.81-.01-1.62-.02-2.43Z"/>
  <path class="cls-9" d="m55.09,133.74c-.36,1.49-.73,2.98-1.07,4.47-.39,1.68-.76,3.36-1.13,5.05-1.98,2.14-3.97,4.28-5.95,6.42-1.98-.53-.97-1.68-.6-2.75.94-2.76,1.84-5.53,2.76-8.3,2-1.63,4-3.25,6-4.88Z"/>
  <path class="cls-4" d="m63.68,149.21c.65-3.34,1.77-6.42,4.61-8.59-.06,3.65-1.67,6.48-4.61,8.59Z"/>
  <path class="cls-12" d="m58.18,150.16c0,.81.01,1.62.02,2.43-1.67.8-3.35,1.61-5.02,2.41-.25-.42-.5-.84-.75-1.26,1.92-1.19,3.83-2.39,5.75-3.58Z"/>
</svg>
