<?xml version="1.0" encoding="UTF-8"?>
<svg id="Layer_1" data-name="Layer 1" xmlns="http://www.w3.org/2000/svg" viewBox="0 0 734.4 229.8">
  <defs>
    <style>
      .cls-1 {
        fill: #fefefe;
      }

      .cls-1, .cls-2, .cls-3, .cls-4, .cls-5, .cls-6, .cls-7, .cls-8, .cls-9, .cls-10, .cls-11, .cls-12, .cls-13, .cls-14, .cls-15, .cls-16, .cls-17, .cls-18, .cls-19, .cls-20, .cls-21, .cls-22, .cls-23, .cls-24, .cls-25 {
       
      }

      .cls-2 {
        fill: #725929;
      }

      .cls-3 {
        fill: #403251;
      }

      .cls-4 {
        fill: #9866c9;
      }

      .cls-5 {
        fill: #9665c7;
      }

      .cls-6 {
        fill: #9765c8;
      }

      .cls-7 {
        fill: #9866cb;
      }

      .cls-8 {
        fill: #443456;
      }

      .cls-9 {
        fill: #ad72e8;
      }

      .cls-10 {
        fill: gray;
      }

      .cls-11 {
        fill: #693e3e;
      }

      .cls-12 {
        fill: #6a4040;
      }

      .cls-13 {
        fill: #39294b;
      }

      .cls-14 {
        fill: #6f4545;
      }

      .cls-15 {
        fill: #9967ca;
      }

      .cls-16 {
        fill: #735d38;
      }

      .cls-17 {
        fill: #745d31;
      }

      .cls-18 {
        fill: #fdb2b2;
      }

      .cls-19 {
        fill: #fbd386;
      }

      .cls-20 {
        fill: #404040;
      }

      .cls-21 {
        fill: #725a2e;
      }

      .cls-22 {
        fill: #fdfdfd;
      }

      .cls-23 {
        fill: #413451;
      }

      .cls-24 {
        fill: #37264a;
      }

      .cls-25 {
        fill: #6c4646;
      }
    </style>
  </defs>
  <path class="cls-1" d="m1.2.6v228.6h733.2c-.1.2-.19.56-.3.57-.8.05-1.6.03-2.4.03H.6c0-75.5,0-151,.02-226.51,0-.9.37-1.8.57-2.69Z"/>
  <path class="cls-19" d="m32.94,36.44c-.38-4.41,2.5-7.1,5.58-9.2,7.92-5.38,16.95-8.05,26.36-9.24,8.4-1.06,16.85-2.2,25.28-2.3,10.56-.12,21.14.84,31.4,3.59,11.72,3.14,22.95,7.66,32.91,14.61,5.8,4.04,11.14,8.84,16.23,13.77,8.93,8.63,15.09,19.24,19.31,30.76,3.07,8.4,5.7,17.08,6.01,26.19.21,6.15.73,12.3.52,18.44-.28,8.24-1.53,16.34-3.83,24.34-1.98,6.92-4.19,13.63-8.71,19.32-1.52,1.91-3.55,3.41-5.35,5.1-1.61.27-3.21.54-4.82.81-4.51-1.89-6.84-5.81-8.29-10.01-3.84-11.11-7.2-22.39-10.91-33.55-2.05-6.18-4.42-12.25-6.64-18.37-2.56-5.49-4.86-11.13-7.73-16.45-4.76-8.79-9.89-17.38-15.13-26.51,3.55-3.73,7.55-7.93,11.44-12.02,12.19,7.52,20.4,18.11,26.86,30.24.74,1.39,1.33,2.97-.46,4.18-1.97.5-3.45,1.37-2.88,3.79.17.83.34,1.67.5,2.5.39,1,.56,2.22,1.23,2.97,1.18,1.31,2.94,3.47,3.99,3.24,1.81-.4,3.87-2.07,4.74-3.76,1.95-3.79,2.08-7.98.79-12.13-1.13-7.5-4.14-14.24-8.48-20.37-7.92-11.19-18.18-19.43-31.14-24.21-6.66-2.45-13.48-3.41-20.53-2.69-5.52.56-7.82,4.38-5.78,9.49.27.69.4,1.43.69,2.48-3.92-1.25-7.41-2.64-11.04-3.46-7.04-1.61-14.1-3.61-21.25-4.16-9.31-.71-18.73-.47-28.08-.07-6.13.26-9.95-2.45-12.81-7.34Z"/>
  <path class="cls-22" d="m312.85,108.22c-.98-.41-1.96-.83-2.94-1.24-10.62-4.75-20.53-3.59-29.44,3.92-1.76,1.48-2.77,3.85-4.13,5.81l.04-.03c-.22.28-.45.56-.67.83-1.12,2.55-2.92,5.02-3.24,7.67-1.13,9.39-.35,18.54,7.13,25.5,2.31,2.15,5.45,3.42,8.21,5.09.38.15.75.29,1.13.44,3.84.36,7.67.72,11.51,1.08,2.4-.78,5.16-1.57,4.55-4.8-.58-3.07-3.49-2.73-5.82-2.83-2.25-.1-4.51-.02-7.18-.02v-25.74c3.97,0,7.63,0,11.29,0,6.28,0,12.57-.07,18.85.07,1.11.02,2.61.6,3.23,1.44,6.82,9.21,10.4,19.23,8.7,31-1.07,7.44-4.16,13.65-8.63,19.41-.18.44-.36.89-.55,1.33,0,0,.02-.03.02-.03-.2.21-.41.42-.61.64,0,0,.03-.03.03-.03-.5.2-1.11.28-1.48.61-13.29,12-28.82,13.94-45.34,9.28-22.65-6.38-41.75-30.65-39.75-60.78.47-7.06,2.54-14.02,3.87-21.03,4.72-10.23,11.58-18.67,20.84-25.16,10.74-7.53,22.84-10.12,35.66-9.26,4.95.33,9.8,2.08,14.69,3.19,0,11.22.01,22.44.02,33.65Z"/>
  <path class="cls-22" d="m587.68,107.34c-.64-1.54-1.27-3.07-2.01-4.84h29.28c2.31,7.83,4.65,15.74,7.19,24.33,1.37-3.84,2.53-7.18,3.76-10.49,1.58-4.27,3.13-8.55,4.89-12.74.28-.66,1.64-1.21,2.51-1.22,7.99-.09,15.98-.05,23.97-.05,20.27,0,40.54,0,61.34,0-8.78,20-17.43,39.73-26.3,59.94h25.9c0,8.11,0,16.22,0,24.34-1,.07-2,.13-3,.2-19.06-.03-38.13-.06-57.19-.11-1.29,0-2.57-.18-3.86-.27,1.45-3.65,2.8-7.34,4.36-10.93,5.07-11.66,10.22-23.29,15.35-34.93,1.01-2.29,2.05-4.58,3.07-6.86,1.14-2.13,2.28-4.26,3.7-6.91h-27.85v-7.1c-.16,0-.32-.01-.47-.02-.96,2.16-1.92,4.31-2.88,6.47-8.8,21.22-17.6,42.44-26.39,63.67-.15.36-.22.75-.33,1.13-.58-.86-1.33-1.66-1.72-2.6-11.13-26.99-22.22-54-33.32-81Z"/>
  <path class="cls-22" d="m496.73,154.24c-1.26,7.04-4.7,13.05-8.82,18.74-.18.39-.36.77-.54,1.16,0,0,.02-.03.02-.03-.2.22-.4.43-.6.65l.04-.04c-.85.63-1.78,1.16-2.54,1.89-13.33,12.84-33.11,16.32-49.67,8.7-16.8-7.73-27.03-24.63-25.79-43.21.33-4.91,1.62-9.75,2.48-14.62,0,0-.03.03-.03.03.21-.25.41-.49.62-.74,3.3-6.6,7.48-12.45,13.35-17.13,5.45-4.35,11.41-7.38,18.24-8.66,14.75-2.77,28.1-.27,39.41,10.28,7,6.53,11.95,14.17,13.81,23.63.45,2.3.63,4.66.94,6.99-.3,4.13-.6,8.25-.9,12.38Zm-59.68-18.43c-.23.28-.46.57-.69.85-4.93,9.37.35,22.17,10.44,26.21,7.75,3.11,18.4-1.31,20.58-6.58.39-.28.91-.47,1.14-.85,4.23-6.72,4.49-13.68.78-20.62-3.65-6.81-10.81-10.46-18.12-9.62-6.48.75-12.78,5.49-14.16,10.64,0,0,.04-.04.04-.04Z"/>
  <path class="cls-22" d="m504.21,126.76c3.32-6.61,7.49-12.48,13.37-17.16,5.46-4.35,11.44-7.4,18.27-8.66,14.65-2.71,27.99-.3,39.23,10.21,6.82,6.38,11.77,13.74,13.7,23.07,2.96,14.26.29,27.16-8.56,38.76-.18.39-.36.77-.54,1.16,0,0,.02-.03.02-.03-.2.22-.4.43-.6.65,0,0,.04-.04.04-.04-.85.63-1.78,1.16-2.54,1.89-13.33,12.84-33.11,16.32-49.67,8.7-16.8-7.73-27.03-24.63-25.79-43.21.33-4.91,1.62-9.75,2.48-14.62,0,0-.03.03-.03.03.21-.25.41-.49.62-.74Zm25.17,9.06c-.23.28-.46.57-.69.85-4.93,9.37.35,22.17,10.44,26.21,7.75,3.11,18.4-1.31,20.58-6.58.39-.28.91-.47,1.14-.85,4.23-6.72,4.49-13.68.78-20.62-3.65-6.81-10.81-10.46-18.12-9.62-6.48.75-12.78,5.49-14.16,10.64,0,0,.04-.04.04-.04Z"/>
  <path class="cls-22" d="m341.02,108.32v-5.79c.88-.08,1.54-.18,2.21-.19,10.87-.01,21.76-.26,32.62.07,8.44.26,16.23,2.49,22.5,8.86,8.45,8.59,9.38,24.8,2.44,34-1.47,1.95-2.99,3.88-4.54,5.77-1.18,1.44-1.14,2.86-.42,4.52,2.24,5.14,4.38,10.32,6.53,15.49,2.12,5.07,4.22,10.16,6.53,15.75-2.18,0-4.1,0-6.02,0-6.07-.03-12.15-.12-18.22-.06-1.71.02-2.7-.42-3.38-2.11-1.41-3.5-2.8-7.04-4.66-10.31-5.56-9.8-7.85-20.23-6.64-31.42,0-1.67,0-3.34,0-4.62,2.25-.69,4.13-1.27,6.01-1.84,2.93.02,3.62-2.11,3.94-4.34.37-2.58-.78-4.74-3.27-5.35-3.21-.79-6.56-.96-10.2-1.45v6.31c-.02,4.01-.03,8.03-.05,12.04,0,7.38.01,14.76.02,22.14-.04,6.94-.09,13.87-.13,20.81-1.2.07-2.4.13-3.6.2-7.13,0-14.27,0-21.58,0,0-2.15,0-3.73,0-5.32-.03-24.39-.07-48.79-.1-73.18Z"/>
  <path class="cls-2" d="m162.99,90.16c1.8-1.21,1.21-2.79.46-4.18-6.46-12.12-14.67-22.72-26.86-30.24-3.89,4.09-7.89,8.29-11.44,12.02,5.23,9.12,10.37,17.71,15.13,26.51,2.88,5.32,5.18,10.95,7.73,16.45-1.43-.2-2.86-.39-4.29-.59-.27-.64-.65-1.26-.78-1.92-1.76-8.97-5.9-16.74-11.62-23.83-8.57-10.62-19.86-16.9-32.8-20.18-7.73-1.96-15.76-2.57-23.76-1.91-10.57.87-20.89,2.98-30.2,8.35-6.21,3.59-11.22,8.23-11.56,16.11-.82,2.22-1.64,4.45-2.46,6.67-3.59.79-5.9-1.63-8.24-3.55-2.38-1.95-1.7-4.86-1.18-7.37.69-3.33,1.95-6.54,2.75-9.86,1.72-7.11,3.21-14.27,4.96-21.36,1.23-4.98,2.74-9.89,4.12-14.83,2.87,4.89,6.69,7.6,12.81,7.34,9.35-.4,18.77-.64,28.08.07,7.15.55,14.21,2.55,21.25,4.16,3.62.83,7.11,2.21,11.04,3.46-.29-1.05-.41-1.79-.69-2.48-2.04-5.11.26-8.93,5.78-9.49,7.05-.72,13.88.24,20.53,2.69,12.96,4.78,23.22,13.02,31.14,24.21,4.34,6.13,7.36,12.87,8.48,20.37-.65.53-1.33,1.03-1.95,1.59-2.95,2.69-5.87,5.39-8.81,8.09-.17-.83-.34-1.67-.5-2.5.96-1.26,1.92-2.53,2.88-3.79Z"/>
  <path class="cls-11" d="m30.53,93.41c.82-2.22,1.64-4.45,2.46-6.67.38.8.81,1.58,1.13,2.41,1.82,4.63,3.1,5.5,8.07,5.41,2.29-.04,4.6-.2,6.88-.06,5.34.32,10.71.56,16,1.26,3.66.49,7.21,1.69,10.67,2.53.41-2.47.36-5.08,1.3-7.26,2.33-5.42,7.41-6.48,12.61-6.78,16.04-.92,32.14,13.47,32.49,29.44-2.07,2.06-4.2,4.06-6.17,6.21-1.49,1.63-2.78,3.45-4.15,5.18-.31-.24-.62-.48-.94-.72.57-.95,1.21-1.87,1.69-2.86.5-1.05.83-2.18,1.24-3.28.21-.12.42-.24.63-.36.17-.12.33-.24.5-.36-3.66-8.49-8.93-15.68-17.02-20.87-4.1,4.29-8.29,8.56-12.28,13.01-.61.68-.22,2.24-.3,3.39-2.74.54-3.13,2.9-3.86,4.99-.54-.24-1.14-.39-1.62-.72-9.02-6.1-18.61-6.2-28.37-2.35-9.08,3.58-15.65,9.58-17.43,19.69l-1.13,3.03c-2.35.16-4.7.47-7.04.41-.89-.02-1.93-.71-2.6-1.39-3.39-3.43-3.19-7.34-1.75-11.66,1.86-5.61,3.25-11.39,4.86-17.09,1.37-4.85,2.76-9.69,4.15-14.53Z"/>
  <path class="cls-21" d="m143.73,110.12c1.43.2,2.86.39,4.29.59,2.22,6.12,4.59,12.2,6.64,18.37,3.71,11.16,7.07,22.43,10.91,33.55,1.45,4.2,3.77,8.12,8.29,10.01-1.71,1.81-3.27,3.79-5.15,5.41-6.76,5.83-13.68,11.47-20.41,17.33-2.63,2.3-4.92,5-7.36,7.52,0,0-.01,0-.01,0-.19.15-.38.3-.56.45-5.25-.01-7.05-4.05-8.35-7.89-2.36-6.99-4.12-14.18-6.17-21.28-.24-.84-.77-1.59-1.16-2.38.99-1.64,1.98-3.27,2.98-4.91v.05c.21-.16.43-.33.64-.49.96-.83,2.04-1.57,2.87-2.52,7.55-8.63,10.86-19.01,12.81-30.1,1.4-7.99.63-15.82-.25-23.72Z"/>
  <path class="cls-12" d="m81.48,118.03c.74-2.09,1.12-4.45,3.86-4.99.94,2.39,1.9,4.77,2.83,7.16,5.16,13.24,10.21,26.55,17.64,38.74,3.24,5.31,7.13,10.1,14.09,10.69-.44.85-.73,1.83-1.35,2.53-6.14,6.99-12.35,13.92-18.49,20.92-2.25,2.57-4.37,5.26-6.54,7.9-5.43.96-8.66-2.45-10.88-6.38-3.74-6.61-6.81-13.6-10.16-20.42.64-1.34,1.23-2.7,1.92-4.01,1.88-3.56,3.81-7.09,5.72-10.63,0,0,.11.21.11.21.22-.22.44-.45.66-.67l-.1.06c.25-.37.5-.75.75-1.12,1.22-1.78,2.54-3.5,3.64-5.36,4.67-7.89,6.35-16.28,2.79-24.94-1.45-3.52-4.29-6.48-6.49-9.69Z"/>
  <path class="cls-13" d="m51.03,197.51c-4.38,2.33-9.12,1.2-13.64,1.01-4.94-.21-9.83-1.48-15.24-2.37,1.15-2.93,2.45-6.24,3.63-9.24-1.16-2.13-4.69,1.32-4.69-2.58.37-.41.88-.77,1.07-1.25,2.58-6.49,5.2-12.97,7.62-19.51,1.67-4.52,3.05-9.15,4.56-13.72,2.34.35,4.67.7,7.01,1.05-.59,2.39-1.18,4.77-1.77,7.16-1.16,1.62-2.32,3.23-3.66,5.1,3.83.18,7.34-.08,10.67.57,8,1.57,15.94,3.14,24.09,1.23-5.34,8.31-10.75,16.59-15.99,24.97-1.48,2.37-2.47,5.05-3.68,7.58Z"/>
  <path class="cls-6" d="m241.63,105.79c-1.33,7.01-3.4,13.96-3.87,21.03-2.01,30.13,17.1,54.39,39.75,60.78,16.52,4.66,32.05,2.71,45.34-9.28.37-.34.98-.41,1.48-.61-3.2,3.39-6,7.3-9.67,10.08-10.09,7.65-21.74,9.07-34.01,7.35-13.37-1.87-23.79-8.55-32.39-18.74-5.82-6.9-9.94-14.62-12.25-23.2-2.23-8.29-2.85-16.77-1.7-25.42.91-6.87,2.65-13.4,5.64-19.61.42-.86,1.11-1.59,1.68-2.38Z"/>
  <path class="cls-4" d="m411.3,127.47c-.85,4.87-2.15,9.72-2.48,14.62-1.24,18.58,8.99,35.48,25.79,43.21,16.56,7.62,36.33,4.14,49.67-8.7.75-.73,1.69-1.26,2.54-1.89-3.16,5.89-8.07,10.12-13.5,13.73-10.45,6.95-22.26,8.62-34.01,5.75-17.58-4.29-28.89-15.88-33.31-33.57-2.92-11.71-1.14-22.86,5.31-33.16Z"/>
  <path class="cls-4" d="m503.62,127.47c-.85,4.87-2.15,9.72-2.48,14.62-1.24,18.58,8.98,35.48,25.79,43.21,16.56,7.62,36.33,4.14,49.67-8.7.75-.73,1.69-1.26,2.54-1.89-3.21,5.97-8.18,10.28-13.72,13.9-10.37,6.77-22.09,8.45-33.73,5.61-17.55-4.28-28.74-15.86-33.39-33.46-.57-2.16-1.05-4.35-1.57-6.53.3-4.13.6-8.25.9-12.38,2-4.8,4-9.6,6-14.4Z"/>
  <path class="cls-5" d="m587.68,107.34c11.1,27,22.19,54.01,33.32,81,.39.94,1.14,1.74,1.72,2.6-1.11,1.96-2.22,3.93-3.62,6.42-12.27-29.83-24.38-59.28-36.38-88.46,1.85-.58,3.4-1.07,4.96-1.56Z"/>
  <path class="cls-7" d="m341.02,108.32c.03,24.39.07,48.79.1,73.18,0,1.58,0,3.16,0,5.32,7.32,0,14.45,0,21.58,0,0,1.87,0,3.74,0,5.74h-24.95v-84.24h3.27Z"/>
  <path class="cls-4" d="m369.98,142.91c-1.21,11.19,1.08,21.62,6.64,31.42,1.86,3.27,3.25,6.82,4.66,10.31.68,1.69,1.66,2.13,3.38,2.11,6.07-.06,12.15.03,18.22.06.74,1.9,1.48,3.8,2.29,5.89-8.47,0-16.66.05-24.84-.08-.86-.01-2.12-.93-2.5-1.75-3.55-7.71-6.96-15.49-10.4-23.26-.33-.6-.66-1.2-.99-1.81,0-7.38-.01-14.76-.02-22.14,1.19-.25,2.38-.5,3.57-.76Z"/>
  <path class="cls-7" d="m654.16,186.43c1.29.09,2.57.27,3.86.27,19.06.05,38.13.08,57.19.11v5.74h-64.03c1.05-2.15,2.01-4.14,2.98-6.12Z"/>
  <path class="cls-3" d="m51.03,197.51c1.21-2.54,2.2-5.22,3.68-7.58,5.24-8.38,10.65-16.65,15.99-24.97,3.14-1.81,6.28-3.62,9.42-5.42-1.91,3.54-3.83,7.07-5.72,10.63-.69,1.31-1.28,2.67-1.92,4.01-1.46,1.96-2.97,3.88-4.37,5.88-3.4,4.86-5.8,10.52-10.7,14.19-1.88,1.41-4.24,2.19-6.38,3.26Z"/>
  <path class="cls-23" d="m34.35,149.84c-1.51,4.58-2.89,9.2-4.56,13.72-2.42,6.55-5.04,13.02-7.62,19.51-.19.48-.71.84-1.07,1.25-.04-3.9-.6-7.88.02-11.67.71-4.36,2.35-8.6,3.79-12.82,2.2-6.42,4.57-12.79,6.88-19.17.36-1,.76-1.99,1.15-2.99.38-1.01.75-2.02,1.13-3.03.1,5.06.2,10.13.29,15.19Z"/>
  <path class="cls-7" d="m649.44,126.14c.96-2.16,1.92-4.31,2.88-6.47.16,0,.32.01.47.02v7.1h27.85c-1.42,2.65-2.56,4.78-3.7,6.91-.94-.28-1.88-.81-2.82-.81-7.95-.07-15.9-.04-23.97-.04-.25-2.32-.48-4.52-.71-6.71Z"/>
  <path class="cls-15" d="m276.35,116.7c1.36-1.96,2.37-4.32,4.13-5.81,8.91-7.5,18.82-8.66,29.44-3.92-.19,1.22-.44,2.43-.54,3.65-.09,1.15-.02,2.32-.02,3.6-2.88-1.04-5.42-2.34-8.11-2.86-8.58-1.65-16.8-1.13-23.8,5-.26.23-.73.23-1.1.33Z"/>
  <path class="cls-5" d="m288.94,156.2c-.38-.15-.75-.29-1.13-.44.2-1.01.57-2.01.57-3.02.05-7.5.03-14.99.03-22.71,1.3-.09,2.44-.17,3.59-.25,0,6.51,0,13.01,0,19.84,2.67,0,4.93-.08,7.18.02,2.33.1,5.24-.24,5.82,2.83.61,3.23-2.15,4.02-4.55,4.8-3.58-3.05-7.58-1.67-11.51-1.08Z"/>
  <path class="cls-25" d="m93.52,200.97c2.18-2.64,4.29-5.33,6.54-7.9,6.14-6.99,12.35-13.92,18.49-20.92.61-.7.91-1.68,1.35-2.53,2.58-.91,5.16-1.82,7.74-2.73-.99,1.64-1.98,3.27-2.98,4.91-1.75,1.67-3.63,3.23-5.23,5.03-4.27,4.81-8.34,9.82-12.67,14.58-3.08,3.39-5.86,7.24-10.46,8.87-.9.32-1.86.46-2.79.68Z"/>
  <path class="cls-16" d="m140.93,202.9c2.44-2.52,4.72-5.22,7.36-7.52,6.73-5.86,13.65-11.5,20.41-17.33,1.88-1.62,3.44-3.6,5.15-5.41,1.61-.27,3.21-.54,4.82-.81-2.85,2.58-5.66,5.2-8.56,7.72-7.91,6.88-15.8,13.77-23.82,20.52-1.51,1.27-3.56,1.9-5.36,2.83Z"/>
  <path class="cls-10" d="m312.85,108.22c0-11.22-.01-22.44-.02-33.65.24.71.68,1.42.68,2.13.05,9.94.04,19.89,0,29.83,0,.57-.43,1.13-.66,1.7Z"/>
  <path class="cls-20" d="m718.21,186.61c0-8.11,0-16.22,0-24.34.2.49.57.99.57,1.48.04,7.12.04,14.24,0,21.37,0,.5-.37.99-.57,1.48Z"/>
  <path class="cls-20" d="m366.43,165.8c.33.6.66,1.2.99,1.81-.17,3.87-.31,7.75-.53,11.61-.14,2.47-.39,4.92-.59,7.39.04-6.94.09-13.87.13-20.81Z"/>
  <path class="cls-4" d="m487.36,174.14c.18-.39.36-.77.54-1.16-.18.39-.36.77-.54,1.16Z"/>
  <path class="cls-4" d="m579.68,174.14c.18-.39.36-.77.54-1.16-.18.39-.36.77-.54,1.16Z"/>
  <path class="cls-6" d="m324.89,177.13c.18-.44.36-.89.55-1.33-.18.44-.36.89-.55,1.33Z"/>
  <path class="cls-15" d="m275.71,117.5c.22-.28.45-.56.67-.83l-.67.83Z"/>
  <path class="cls-4" d="m504.21,126.76c-.21.25-.41.49-.62.74.21-.25.41-.49.62-.74Z"/>
  <path class="cls-4" d="m486.78,174.76c.2-.22.4-.43.6-.65-.2.22-.4.43-.6.65Z"/>
  <path class="cls-4" d="m579.1,174.76c.2-.22.4-.43.6-.65-.2.22-.4.43-.6.65Z"/>
  <path class="cls-4" d="m411.88,126.76c-.21.25-.41.49-.62.74.21-.25.41-.49.62-.74Z"/>
  <path class="cls-6" d="m324.3,177.73c.2-.21.41-.42.61-.64-.2.21-.41.42-.61.64Z"/>
  <path class="cls-16" d="m140.36,203.35c.19-.15.38-.3.56-.45-.19.15-.38.3-.56.45Z"/>
  <path class="cls-17" d="m160.61,96.46c2.93-2.7,5.86-5.4,8.81-8.09.62-.57,1.3-1.06,1.95-1.59,1.29,4.15,1.16,8.34-.79,12.13-.87,1.69-2.94,3.36-4.74,3.76-1.06.24-2.81-1.93-3.99-3.24-.68-.75-.84-1.96-1.23-2.97Z"/>
  <path class="cls-17" d="m162.99,90.16c-.96,1.26-1.92,2.53-2.88,3.79-.57-2.42.91-3.3,2.88-3.79Z"/>
  <path class="cls-15" d="m467.38,156.3c1.26-7,.82-13.54-4.47-19.08-3-3.14-6.43-5.14-10.76-5.56-5.59-.55-10.78.34-15.14,4.19,1.38-5.15,7.69-9.89,14.16-10.64,7.31-.85,14.47,2.81,18.12,9.62,3.72,6.95,3.46,13.91-.78,20.62-.24.37-.75.57-1.14.85Z"/>
  <path class="cls-15" d="m437.05,135.81c-.23.28-.46.56-.69.85.23-.28.46-.56.69-.85Z"/>
  <path class="cls-15" d="m559.7,156.3c1.26-7,.82-13.54-4.47-19.08-3-3.14-6.43-5.14-10.76-5.56-5.59-.55-10.78.34-15.14,4.19,1.38-5.15,7.69-9.89,14.16-10.64,7.31-.85,14.47,2.81,18.12,9.62,3.72,6.95,3.46,13.91-.78,20.62-.24.37-.75.57-1.14.85Z"/>
  <path class="cls-15" d="m529.37,135.81c-.23.28-.46.56-.69.85.23-.28.46-.56.69-.85Z"/>
  <path class="cls-15" d="m366.46,131.62v-6.31c3.63.48,6.99.66,10.2,1.45,2.5.61,3.65,2.78,3.27,5.35-.32,2.22-1.02,4.36-3.94,4.34-.28-3.26-2.64-3.91-5.29-4.23-1.41-.17-2.82-.4-4.23-.6Z"/>
  <path class="cls-18" d="m127.65,166.9c-2.58.91-5.16,1.82-7.74,2.73-6.95-.59-10.85-5.38-14.09-10.69-7.44-12.19-12.48-25.5-17.64-38.74-.93-2.39-1.89-4.77-2.83-7.16.08-1.15-.31-2.71.3-3.39,3.98-4.45,8.18-8.72,12.28-13.01,8.09,5.18,13.36,12.38,17.02,20.87-.17.12-.33.24-.5.36-.21.12-.42.24-.63.36-.52.28-1.06.54-1.56.84-3.35,2.02-3.92,3.97-1.97,6.7,1.6,2.24,3.72,2.14,6.63-.1,3.97-3.05,5.26-7.22,5.25-11.98-.35-15.97-16.46-30.36-32.49-29.44-5.2.3-10.28,1.36-12.61,6.78-.94,2.18-.89,4.79-1.3,7.26-3.46-.85-7.02-2.05-10.67-2.53-5.3-.7-10.66-.95-16-1.26-2.28-.14-4.59.02-6.88.06-4.97.09-6.25-.78-8.07-5.41-.32-.82-.75-1.6-1.13-2.41.34-7.88,5.35-12.52,11.56-16.11,9.31-5.38,19.63-7.48,30.2-8.35,8-.66,16.04-.05,23.76,1.91,12.94,3.28,24.23,9.56,32.8,20.18,5.72,7.09,9.86,14.85,11.62,23.83.13.67.52,1.28.78,1.92.88,7.9,1.65,15.73.25,23.72-1.95,11.08-5.26,21.46-12.81,30.1-.83.95-1.91,1.68-2.87,2.52-.22.16-.44.33-.66.49v-.05Z"/>
  <path class="cls-9" d="m34.35,149.84c-.1-5.06-.2-10.13-.29-15.19,1.78-10.11,8.36-16.11,17.43-19.69,9.77-3.85,19.36-3.75,28.37,2.35.48.33,1.08.48,1.62.72,2.21,3.21,5.05,6.17,6.49,9.69,3.56,8.66,1.87,17.05-2.79,24.94-1.1,1.85-2.42,3.58-3.64,5.36-.25.37-.5.75-.75,1.12,0,0,.1-.06.1-.06-.22.22-.44.45-.66.67,0,0-.11-.21-.11-.21-3.14,1.81-6.28,3.61-9.42,5.42-8.15,1.91-16.09.34-24.09-1.23-3.33-.66-6.84-.4-10.67-.57,1.34-1.87,2.5-3.49,3.66-5.1,3.61-3.89,7.22-7.78,10.82-11.67.18-.12.36-.24.54-.36.19-.2.38-.39.56-.59,1.02-.99,2.03-1.98,3.53-3.45,1.58,2.08,3.11,3.91,4.37,5.92.28.44-.43,1.5-.69,2.27-1.91,1.19-3.82,2.38-5.74,3.57.25.42.49.83.74,1.25,1.67-.8,3.34-1.6,5.01-2.41,1.83-1.12,3.65-2.25,5.48-3.37,2.91-2.13,4.54-4.94,4.61-8.58-.23-3.36-1.37-5.93-4.84-7.37-4.11-1.7-7.43-.49-10.68,1.88-.49.29-1.03.53-1.46.89-3.87,3.3-5.86,7.83-8.09,12.22-.52,1.02-1.58,1.77-2.4,2.65-2.34-.35-4.67-.7-7.01-1.05Z"/>
  <path class="cls-14" d="m122.15,113.69c0,4.76-1.27,8.92-5.25,11.98-2.91,2.24-5.03,2.33-6.63.1-1.95-2.72-1.38-4.67,1.97-6.7.51-.31,1.04-.56,1.56-.84-.41,1.1-.74,2.22-1.24,3.28-.47,1-1.12,1.91-1.69,2.86.31.24.62.48.94.72,1.38-1.73,2.66-3.55,4.15-5.18,1.97-2.15,4.11-4.15,6.17-6.21Z"/>
  <path class="cls-14" d="m114.44,117.87c.17-.12.33-.24.5-.36-.16.12-.33.24-.5.36Z"/>
  <path class="cls-25" d="m127.63,166.95c.22-.16.44-.33.66-.49-.22.16-.44.33-.66.49Z"/>
  <path class="cls-3" d="m80.79,159.14c.25-.37.5-.75.75-1.12-.25.37-.5.75-.75,1.12Z"/>
  <path class="cls-3" d="m80.23,159.74c.22-.22.44-.45.66-.67-.22.22-.44.45-.66.67Z"/>
  <path class="cls-8" d="m41.36,150.88c.81-.88,1.87-1.62,2.4-2.65,2.23-4.39,4.22-8.92,8.09-12.22.43-.37.97-.6,1.46-.89-.29,1.23-.55,2.46-.87,3.68-.66,2.53-1.35,5.05-2.02,7.57-3.61,3.89-7.22,7.78-10.82,11.67.59-2.39,1.18-4.77,1.77-7.16Z"/>
  <path class="cls-24" d="m50.42,146.38c.68-2.52,1.36-5.04,2.02-7.57.32-1.22.58-2.45.87-3.68,3.25-2.37,6.57-3.58,10.68-1.88,3.48,1.44,4.62,4.01,4.84,7.37-2.81,2.18-4.24,5.1-4.61,8.58-1.83,1.12-3.65,2.25-5.48,3.37,0-.8,0-1.61-.01-2.41.26-.77.96-1.83.69-2.27-1.26-2-2.79-3.84-4.37-5.92-1.5,1.46-2.51,2.45-3.53,3.44-.19.2-.38.39-.56.59-.18.12-.36.24-.54.36Z"/>
  <path class="cls-3" d="m64.23,149.21c.37-3.48,1.8-6.4,4.61-8.58-.06,3.65-1.7,6.46-4.61,8.58Z"/>
  <path class="cls-8" d="m58.73,150.16c0,.8,0,1.61.01,2.41-1.67.8-3.34,1.6-5.01,2.41-.25-.42-.49-.83-.74-1.25,1.91-1.19,3.82-2.38,5.74-3.57Z"/>
  <path class="cls-8" d="m50.96,146.01c.19-.2.38-.39.56-.59-.19.2-.38.39-.56.59Z"/>
</svg>
